<svg xmlns="http://www.w3.org/2000/svg" xmlns:xlink="http://www.w3.org/1999/xlink" contentStyleType="text/css" height="367px" preserveAspectRatio="none" style="width:361px;height:367px;background:#FFFFFF;" version="1.1" viewBox="0 0 361 367" width="361px" zoomAndPan="magnify"><defs/><g><!--cluster C_0009392701334512935369--><g id="cluster_C_0009392701334512935369"><path d="M8.5,6 L31.5,6 A3.75,3.75 0 0 1 34,8.5 L41,29.6094 L351.5,29.6094 A2.5,2.5 0 0 1 354,32.1094 L354,357.5 A2.5,2.5 0 0 1 351.5,360 L8.5,360 A2.5,2.5 0 0 1 6,357.5 L6,8.5 A2.5,2.5 0 0 1 8.5,6 " fill="none" style="stroke:#000000;stroke-width:1.5;"/><line style="stroke:#000000;stroke-width:1.5;" x1="6" x2="41" y1="29.6094" y2="29.6094"/><text fill="#000000" font-family="sans-serif" font-size="14" font-weight="bold" lengthAdjust="spacing" textLength="22" x="10" y="22.5332">src</text></g><!--cluster C_0002394840416120061501--><g id="cluster_C_0002394840416120061501"><path d="M220.5,50 L256.5,50 A3.75,3.75 0 0 1 259,52.5 L266,73.6094 L327.5,73.6094 A2.5,2.5 0 0 1 330,76.1094 L330,235.5 A2.5,2.5 0 0 1 327.5,238 L220.5,238 A2.5,2.5 0 0 1 218,235.5 L218,52.5 A2.5,2.5 0 0 1 220.5,50 " fill="none" style="stroke:#000000;stroke-width:1.5;"/><line style="stroke:#000000;stroke-width:1.5;" x1="218" x2="266" y1="73.6094" y2="73.6094"/><text fill="#000000" font-family="sans-serif" font-size="14" font-weight="bold" lengthAdjust="spacing" textLength="35" x="222" y="66.5332">Bank</text></g><!--cluster C_0001617240256891923844--><g id="cluster_C_0001617240256891923844"><path d="M32.5,148 L125.5,148 A3.75,3.75 0 0 1 128,150.5 L135,171.6094 L191.5,171.6094 A2.5,2.5 0 0 1 194,174.1094 L194,333.5 A2.5,2.5 0 0 1 191.5,336 L32.5,336 A2.5,2.5 0 0 1 30,333.5 L30,150.5 A2.5,2.5 0 0 1 32.5,148 " fill="none" style="stroke:#000000;stroke-width:1.5;"/><line style="stroke:#000000;stroke-width:1.5;" x1="30" x2="135" y1="171.6094" y2="171.6094"/><text fill="#000000" font-family="sans-serif" font-size="14" font-weight="bold" lengthAdjust="spacing" textLength="92" x="34" y="164.5332">BankAccount</text></g><!--entity C_0000529258628623449314--><g id="elem_C_0000529258628623449314"><path d="M234.5,88.5 L234.5,121.1094 A2.5,2.5 0 0 0 237,123.6094 L311,123.6094 A2.5,2.5 0 0 0 313.5,121.1094 L313.5,96 L303.5,86 L237,86 A2.5,2.5 0 0 0 234.5,88.5 " fill="#F1F1F1" style="stroke:#181818;stroke-width:0.5;"/><path d="M303.5,86 L303.5,93.5 A2.5,2.5 0 0 0 306,96 L313.5,96 " fill="#F1F1F1" style="stroke:#181818;stroke-width:0.5;"/><text fill="#000000" font-family="sans-serif" font-size="14" lengthAdjust="spacing" textLength="59" x="244.5" y="110.5332">Bank.cpp</text></g><!--entity C_0004959706648474708623--><g id="elem_C_0004959706648474708623"><path d="M234,186.5 L234,219.1094 A2.5,2.5 0 0 0 236.5,221.6094 L311.5,221.6094 A2.5,2.5 0 0 0 314,219.1094 L314,194 L304,184 L236.5,184 A2.5,2.5 0 0 0 234,186.5 " fill="#F1F1F1" style="stroke:#181818;stroke-width:0.5;"/><path d="M304,184 L304,191.5 A2.5,2.5 0 0 0 306.5,194 L314,194 " fill="#F1F1F1" style="stroke:#181818;stroke-width:0.5;"/><text fill="#000000" font-family="sans-serif" font-size="14" lengthAdjust="spacing" textLength="60" x="244" y="208.5332">Bank.hpp</text></g><!--entity C_0001999126956856393903--><g id="elem_C_0001999126956856393903"><path d="M46.5,284.5 L46.5,317.1094 A2.5,2.5 0 0 0 49,319.6094 L175,319.6094 A2.5,2.5 0 0 0 177.5,317.1094 L177.5,292 L167.5,282 L49,282 A2.5,2.5 0 0 0 46.5,284.5 " fill="#F1F1F1" style="stroke:#181818;stroke-width:0.5;"/><path d="M167.5,282 L167.5,289.5 A2.5,2.5 0 0 0 170,292 L177.5,292 " fill="#F1F1F1" style="stroke:#181818;stroke-width:0.5;"/><text fill="#000000" font-family="sans-serif" font-size="14" lengthAdjust="spacing" textLength="111" x="56.5" y="306.5332">BankAccount.hpp</text></g><!--entity C_0016260587715478220546--><g id="elem_C_0016260587715478220546"><path d="M47,186.5 L47,219.1094 A2.5,2.5 0 0 0 49.5,221.6094 L174.5,221.6094 A2.5,2.5 0 0 0 177,219.1094 L177,194 L167,184 L49.5,184 A2.5,2.5 0 0 0 47,186.5 " fill="#F1F1F1" style="stroke:#181818;stroke-width:0.5;"/><path d="M167,184 L167,191.5 A2.5,2.5 0 0 0 169.5,194 L177,194 " fill="#F1F1F1" style="stroke:#181818;stroke-width:0.5;"/><text fill="#000000" font-family="sans-serif" font-size="14" lengthAdjust="spacing" textLength="110" x="57" y="208.5332">BankAccount.cpp</text></g><!--link C_0000529258628623449314 to C_0004959706648474708623--><g id="link_C_0000529258628623449314_C_0004959706648474708623"><path d="M274,124.06 C274,141.11 274,160.56 274,177.7 " fill="none" id="C_0000529258628623449314-to-C_0004959706648474708623" style="stroke:#181818;stroke-width:1.0;"/><polygon fill="#181818" points="274,183.7,278,174.7,274,178.7,270,174.7,274,183.7" style="stroke:#181818;stroke-width:1.0;"/></g><!--link C_0004959706648474708623 to C_0001999126956856393903--><g id="link_C_0004959706648474708623_C_0001999126956856393903"><path d="M243.53,222.06 C214.66,239.17 176.6924,261.6722 147.7724,278.8022 " fill="none" id="C_0004959706648474708623-to-C_0001999126956856393903" style="stroke:#181818;stroke-width:1.0;"/><polygon fill="#181818" points="142.61,281.86,152.3921,280.7149,146.912,279.3118,148.315,273.8317,142.61,281.86" style="stroke:#181818;stroke-width:1.0;"/></g><!--link C_0016260587715478220546 to C_0001999126956856393903--><g id="link_C_0016260587715478220546_C_0001999126956856393903"><path d="M112,222.06 C112,239.11 112,258.56 112,275.7 " fill="none" id="C_0016260587715478220546-to-C_0001999126956856393903" style="stroke:#181818;stroke-width:1.0;"/><polygon fill="#181818" points="112,281.7,116,272.7,112,276.7,108,272.7,112,281.7" style="stroke:#181818;stroke-width:1.0;"/></g></g></svg>