<svg xmlns="http://www.w3.org/2000/svg" xmlns:xlink="http://www.w3.org/1999/xlink" contentStyleType="text/css" height="251px" preserveAspectRatio="none" style="width:436px;height:251px;background:#FFFFFF;" version="1.1" viewBox="0 0 436 251" width="436px" zoomAndPan="magnify"><defs/><g><rect fill="#FFFFFF" height="135.0547" style="stroke:#181818;stroke-width:1.0;" width="10" x="174" y="69.9609"/><rect fill="#FFFFFF" height="30" style="stroke:#181818;stroke-width:1.0;" width="10" x="356" y="151.0156"/><rect fill="none" height="113.0547" style="stroke:#000000;stroke-width:1.5;" width="293.5" x="136" y="84.9609"/><rect fill="none" height="78.7031" style="stroke:#000000;stroke-width:1.5;" width="273.5" x="146" y="110.3125"/><line style="stroke:#181818;stroke-width:0.5;stroke-dasharray:5.0,5.0;" x1="179" x2="179" y1="37.6094" y2="215.0156"/><line style="stroke:#181818;stroke-width:0.5;stroke-dasharray:5.0,5.0;" x1="360.5" x2="360.5" y1="37.6094" y2="215.0156"/><rect fill="#E2E2F0" height="31.6094" rx="2.5" ry="2.5" style="stroke:#181818;stroke-width:0.5;" width="46" x="156" y="5"/><text fill="#000000" font-family="sans-serif" font-size="14" lengthAdjust="spacing" textLength="32" x="163" y="26.5332">Bank</text><rect fill="#E2E2F0" height="31.6094" rx="2.5" ry="2.5" style="stroke:#181818;stroke-width:0.5;" width="46" x="156" y="214.0156"/><text fill="#000000" font-family="sans-serif" font-size="14" lengthAdjust="spacing" textLength="32" x="163" y="235.5488">Bank</text><rect fill="#E2E2F0" height="31.6094" rx="2.5" ry="2.5" style="stroke:#181818;stroke-width:0.5;" width="97" x="312.5" y="5"/><text fill="#000000" font-family="sans-serif" font-size="14" lengthAdjust="spacing" textLength="83" x="319.5" y="26.5332">BankAccount</text><rect fill="#E2E2F0" height="31.6094" rx="2.5" ry="2.5" style="stroke:#181818;stroke-width:0.5;" width="97" x="312.5" y="214.0156"/><text fill="#000000" font-family="sans-serif" font-size="14" lengthAdjust="spacing" textLength="83" x="319.5" y="235.5488">BankAccount</text><rect fill="#FFFFFF" height="135.0547" style="stroke:#181818;stroke-width:1.0;" width="10" x="174" y="69.9609"/><rect fill="#FFFFFF" height="30" style="stroke:#181818;stroke-width:1.0;" width="10" x="356" y="151.0156"/><polygon fill="#181818" points="162,65.9609,172,69.9609,162,73.9609,166,69.9609" style="stroke:#181818;stroke-width:1.0;"/><line style="stroke:#181818;stroke-width:1.0;" x1="0" x2="168" y1="69.9609" y2="69.9609"/><text fill="#000000" font-family="sans-serif" font-size="13" lengthAdjust="spacing" textLength="155" x="7" y="65.1045">displayAllAccounts() const</text><path d="M136,84.9609 L197,84.9609 L197,93.3125 L187,103.3125 L136,103.3125 L136,84.9609 " fill="#EEEEEE" style="stroke:#000000;stroke-width:1.5;"/><rect fill="none" height="113.0547" style="stroke:#000000;stroke-width:1.5;" width="293.5" x="136" y="84.9609"/><text fill="#000000" font-family="sans-serif" font-size="13" font-weight="bold" lengthAdjust="spacing" textLength="16" x="151" y="99.4561">alt</text><path d="M146,110.3125 L219,110.3125 L219,118.6641 L209,128.6641 L146,128.6641 L146,110.3125 " fill="#EEEEEE" style="stroke:#000000;stroke-width:1.5;"/><rect fill="none" height="78.7031" style="stroke:#000000;stroke-width:1.5;" width="273.5" x="146" y="110.3125"/><text fill="#000000" font-family="sans-serif" font-size="13" font-weight="bold" lengthAdjust="spacing" textLength="28" x="161" y="124.8076">loop</text><polygon fill="#181818" points="344,147.0156,354,151.0156,344,155.0156,348,151.0156" style="stroke:#181818;stroke-width:1.0;"/><line style="stroke:#181818;stroke-width:1.0;" x1="184" x2="350" y1="151.0156" y2="151.0156"/><text fill="#000000" font-family="sans-serif" font-size="13" lengthAdjust="spacing" textLength="153" x="191" y="146.1592">displayAccountInfo() const</text><line style="stroke:#000000;stroke-width:1.0;stroke-dasharray:2.0,2.0;" x1="136" x2="429.5" y1="197.0156" y2="197.0156"/></g></svg>