<svg xmlns="http://www.w3.org/2000/svg" xmlns:xlink="http://www.w3.org/1999/xlink" contentStyleType="text/css" height="737px" preserveAspectRatio="none" style="width:947px;height:737px;background:#FFFFFF;" version="1.1" viewBox="0 0 947 737" width="947px" zoomAndPan="magnify"><defs/><g><text fill="#000000" font-family="sans-serif" font-size="14" font-weight="bold" lengthAdjust="spacing" textLength="483" x="225" y="24.5332">This Diagram shows the relationship between all system components</text><!--cluster C_0009392701334512935369--><g id="cluster_C_0009392701334512935369"><path d="M8.5,44.6094 L31.5,44.6094 A3.75,3.75 0 0 1 34,47.1094 L41,68.2188 L937.5,68.2188 A2.5,2.5 0 0 1 940,70.7188 L940,728.1094 A2.5,2.5 0 0 1 937.5,730.6094 L8.5,730.6094 A2.5,2.5 0 0 1 6,728.1094 L6,47.1094 A2.5,2.5 0 0 1 8.5,44.6094 " fill="none" style="stroke:#000000;stroke-width:1.5;"/><line style="stroke:#000000;stroke-width:1.5;" x1="6" x2="41" y1="68.2188" y2="68.2188"/><text fill="#000000" font-family="sans-serif" font-size="14" font-weight="bold" lengthAdjust="spacing" textLength="22" x="10" y="61.1426">src</text></g><!--cluster C_0001617240256891923844--><g id="cluster_C_0001617240256891923844"><path d="M32.5,387.6094 L125.5,387.6094 A3.75,3.75 0 0 1 128,390.1094 L135,411.2188 L913.5,411.2188 A2.5,2.5 0 0 1 916,413.7188 L916,704.1094 A2.5,2.5 0 0 1 913.5,706.6094 L32.5,706.6094 A2.5,2.5 0 0 1 30,704.1094 L30,390.1094 A2.5,2.5 0 0 1 32.5,387.6094 " fill="none" style="stroke:#000000;stroke-width:1.5;"/><line style="stroke:#000000;stroke-width:1.5;" x1="30" x2="135" y1="411.2188" y2="411.2188"/><text fill="#000000" font-family="sans-serif" font-size="14" font-weight="bold" lengthAdjust="spacing" textLength="92" x="34" y="404.1426">BankAccount</text></g><!--cluster C_0002394840416120061501--><g id="cluster_C_0002394840416120061501"><path d="M290.5,88.6094 L326.5,88.6094 A3.75,3.75 0 0 1 329,91.1094 L336,112.2188 L655.5,112.2188 A2.5,2.5 0 0 1 658,114.7188 L658,335.1094 A2.5,2.5 0 0 1 655.5,337.6094 L290.5,337.6094 A2.5,2.5 0 0 1 288,335.1094 L288,91.1094 A2.5,2.5 0 0 1 290.5,88.6094 " fill="none" style="stroke:#000000;stroke-width:1.5;"/><line style="stroke:#000000;stroke-width:1.5;" x1="288" x2="336" y1="112.2188" y2="112.2188"/><text fill="#000000" font-family="sans-serif" font-size="14" font-weight="bold" lengthAdjust="spacing" textLength="35" x="292" y="105.1426">Bank</text></g><!--class C_0009984192897324832466--><a href="classBankAccount.html" target="_top" title="BankAccount" xlink:actuate="onRequest" xlink:href="classBankAccount.html" xlink:show="new" xlink:title="BankAccount" xlink:type="simple"><g id="elem_C_0009984192897324832466"><rect codeLine="5" fill="#F1F1F1" height="267.3125" id="C_0009984192897324832466" rx="2.5" ry="2.5" style="stroke:#181818;stroke-width:0.5;" width="854" x="46" y="423.6094"/><ellipse cx="427.25" cy="439.6094" fill="#ADD1B2" rx="11" ry="11" style="stroke:#181818;stroke-width:1.0;"/><path d="M430.0156,435.4844 Q430.1719,435.2656 430.3594,435.1563 Q430.5469,435.0469 430.7656,435.0469 Q431.1406,435.0469 431.375,435.3125 Q431.6094,435.5625 431.6094,436.1719 L431.6094,437.625 Q431.6094,438.2344 431.375,438.5 Q431.1406,438.7656 430.7656,438.7656 Q430.4219,438.7656 430.2188,438.5625 Q430.0156,438.375 429.9063,437.8594 Q429.8594,437.5 429.6719,437.3125 Q429.3438,436.9375 428.7344,436.7188 Q428.125,436.5 427.5,436.5 Q426.7344,436.5 426.0938,436.8281 Q425.4688,437.1563 424.9688,437.9063 Q424.4844,438.6563 424.4844,439.6875 L424.4844,440.7813 Q424.4844,442.0156 425.375,442.8438 Q426.2656,443.6563 427.8594,443.6563 Q428.7969,443.6563 429.4531,443.4063 Q429.8438,443.25 430.2656,442.8125 Q430.5313,442.5469 430.6719,442.4688 Q430.8281,442.3906 431.0313,442.3906 Q431.3594,442.3906 431.6094,442.6563 Q431.875,442.9063 431.875,443.25 Q431.875,443.5938 431.5313,444 Q431.0313,444.5781 430.2344,444.9063 Q429.1563,445.3594 427.8594,445.3594 Q426.3438,445.3594 425.1406,444.7344 Q424.1563,444.2344 423.4688,443.1719 Q422.7813,442.0938 422.7813,440.8125 L422.7813,439.6563 Q422.7813,438.3281 423.3906,437.1875 Q424.0156,436.0313 425.1094,435.4219 Q426.2031,434.7969 427.4375,434.7969 Q428.1719,434.7969 428.8125,434.9688 Q429.4688,435.125 430.0156,435.4844 Z " fill="#000000"/><text fill="#000000" font-family="sans-serif" font-size="14" lengthAdjust="spacing" textLength="83" x="447.75" y="445.3379">BankAccount</text><line style="stroke:#181818;stroke-width:0.5;" x1="47" x2="899" y1="455.6094" y2="455.6094"/><a href="" target="_top" title="BankAccount" xlink:actuate="onRequest" xlink:href="" xlink:show="new" xlink:title="BankAccount" xlink:type="simple"><rect fill="#F1F1F1" height="10" style="stroke:none;stroke-width:1.0;" width="20" x="52" y="464.9141"/><ellipse cx="57" cy="469.9141" fill="#84BE84" rx="3" ry="3" style="stroke:#038048;stroke-width:1.0;"/></a><a href="" target="_top" title="BankAccount" xlink:actuate="onRequest" xlink:href="" xlink:show="new" xlink:title="BankAccount" xlink:type="simple"><text fill="#000000" font-family="sans-serif" font-size="14" lengthAdjust="spacing" textLength="828" x="66" y="474.1426">BankAccount(int accountNumber, const std::string &amp; accountHolder, const std::string &amp; accountType, double accountBalance) : void</text></a><line style="stroke:#181818;stroke-width:1.0;stroke-dasharray:1.0,2.0;" x1="47" x2="899" y1="481.2188" y2="481.2188"/><a href="" target="_top" title="deposit" xlink:actuate="onRequest" xlink:href="" xlink:show="new" xlink:title="deposit" xlink:type="simple"><rect fill="#F1F1F1" height="10" style="stroke:none;stroke-width:1.0;" width="20" x="52" y="490.5234"/><ellipse cx="57" cy="495.5234" fill="#84BE84" rx="3" ry="3" style="stroke:#038048;stroke-width:1.0;"/></a><a href="" target="_top" title="deposit" xlink:actuate="onRequest" xlink:href="" xlink:show="new" xlink:title="deposit" xlink:type="simple"><text fill="#000000" font-family="sans-serif" font-size="14" lengthAdjust="spacing" textLength="188" x="66" y="499.752">deposit(double amount) : void</text></a><a href="" target="_top" title="displayAccountInfo" xlink:actuate="onRequest" xlink:href="" xlink:show="new" xlink:title="displayAccountInfo" xlink:type="simple"><rect fill="#F1F1F1" height="10" style="stroke:none;stroke-width:1.0;" width="20" x="52" y="508.1328"/><ellipse cx="57" cy="513.1328" fill="#84BE84" rx="3" ry="3" style="stroke:#038048;stroke-width:1.0;"/></a><a href="" target="_top" title="displayAccountInfo" xlink:actuate="onRequest" xlink:href="" xlink:show="new" xlink:title="displayAccountInfo" xlink:type="simple"><text fill="#000000" font-family="sans-serif" font-size="14" lengthAdjust="spacing" textLength="204" x="66" y="517.3613">displayAccountInfo() const : void</text></a><a href="" target="_top" title="getAccountBalance" xlink:actuate="onRequest" xlink:href="" xlink:show="new" xlink:title="getAccountBalance" xlink:type="simple"><rect fill="#F1F1F1" height="10" style="stroke:none;stroke-width:1.0;" width="20" x="52" y="525.7422"/><ellipse cx="57" cy="530.7422" fill="#84BE84" rx="3" ry="3" style="stroke:#038048;stroke-width:1.0;"/></a><a href="" target="_top" title="getAccountBalance" xlink:actuate="onRequest" xlink:href="" xlink:show="new" xlink:title="getAccountBalance" xlink:type="simple"><text fill="#000000" font-family="sans-serif" font-size="14" lengthAdjust="spacing" textLength="225" x="66" y="534.9707">getAccountBalance() const : double</text></a><a href="" target="_top" title="getAccountHolder" xlink:actuate="onRequest" xlink:href="" xlink:show="new" xlink:title="getAccountHolder" xlink:type="simple"><rect fill="#F1F1F1" height="10" style="stroke:none;stroke-width:1.0;" width="20" x="52" y="543.3516"/><ellipse cx="57" cy="548.3516" fill="#84BE84" rx="3" ry="3" style="stroke:#038048;stroke-width:1.0;"/></a><a href="" target="_top" title="getAccountHolder" xlink:actuate="onRequest" xlink:href="" xlink:show="new" xlink:title="getAccountHolder" xlink:type="simple"><text fill="#000000" font-family="sans-serif" font-size="14" lengthAdjust="spacing" textLength="285" x="66" y="552.5801">getAccountHolder() const : const std::string &amp;</text></a><a href="" target="_top" title="getAccountNumber" xlink:actuate="onRequest" xlink:href="" xlink:show="new" xlink:title="getAccountNumber" xlink:type="simple"><rect fill="#F1F1F1" height="10" style="stroke:none;stroke-width:1.0;" width="20" x="52" y="560.9609"/><ellipse cx="57" cy="565.9609" fill="#84BE84" rx="3" ry="3" style="stroke:#038048;stroke-width:1.0;"/></a><a href="" target="_top" title="getAccountNumber" xlink:actuate="onRequest" xlink:href="" xlink:show="new" xlink:title="getAccountNumber" xlink:type="simple"><text fill="#000000" font-family="sans-serif" font-size="14" lengthAdjust="spacing" textLength="195" x="66" y="570.1895">getAccountNumber() const : int</text></a><a href="" target="_top" title="getAccountType" xlink:actuate="onRequest" xlink:href="" xlink:show="new" xlink:title="getAccountType" xlink:type="simple"><rect fill="#F1F1F1" height="10" style="stroke:none;stroke-width:1.0;" width="20" x="52" y="578.5703"/><ellipse cx="57" cy="583.5703" fill="#84BE84" rx="3" ry="3" style="stroke:#038048;stroke-width:1.0;"/></a><a href="" target="_top" title="getAccountType" xlink:actuate="onRequest" xlink:href="" xlink:show="new" xlink:title="getAccountType" xlink:type="simple"><text fill="#000000" font-family="sans-serif" font-size="14" lengthAdjust="spacing" textLength="276" x="66" y="587.7988">getAccountType() const : const std::string &amp;</text></a><a href="" target="_top" title="withdraw" xlink:actuate="onRequest" xlink:href="" xlink:show="new" xlink:title="withdraw" xlink:type="simple"><rect fill="#F1F1F1" height="10" style="stroke:none;stroke-width:1.0;" width="20" x="52" y="596.1797"/><ellipse cx="57" cy="601.1797" fill="#84BE84" rx="3" ry="3" style="stroke:#038048;stroke-width:1.0;"/></a><a href="" target="_top" title="withdraw" xlink:actuate="onRequest" xlink:href="" xlink:show="new" xlink:title="withdraw" xlink:type="simple"><text fill="#000000" font-family="sans-serif" font-size="14" lengthAdjust="spacing" textLength="197" x="66" y="605.4082">withdraw(double amount) : bool</text></a><line style="stroke:#181818;stroke-width:0.5;" x1="47" x2="899" y1="612.4844" y2="612.4844"/><a href="" target="_top" title="accountBalance" xlink:actuate="onRequest" xlink:href="" xlink:show="new" xlink:title="accountBalance" xlink:type="simple"><rect fill="#F1F1F1" height="10" style="stroke:none;stroke-width:1.0;" width="20" x="52" y="621.7891"/><rect fill="none" height="6" style="stroke:#C82930;stroke-width:1.0;" width="6" x="54" y="623.7891"/></a><a href="" target="_top" title="accountBalance" xlink:actuate="onRequest" xlink:href="" xlink:show="new" xlink:title="accountBalance" xlink:type="simple"><text fill="#000000" font-family="sans-serif" font-size="14" lengthAdjust="spacing" textLength="156" x="66" y="631.0176">accountBalance : double</text></a><a href="" target="_top" title="accountHolder" xlink:actuate="onRequest" xlink:href="" xlink:show="new" xlink:title="accountHolder" xlink:type="simple"><rect fill="#F1F1F1" height="10" style="stroke:none;stroke-width:1.0;" width="20" x="52" y="639.3984"/><rect fill="none" height="6" style="stroke:#C82930;stroke-width:1.0;" width="6" x="54" y="641.3984"/></a><a href="" target="_top" title="accountHolder" xlink:actuate="onRequest" xlink:href="" xlink:show="new" xlink:title="accountHolder" xlink:type="simple"><text fill="#000000" font-family="sans-serif" font-size="14" lengthAdjust="spacing" textLength="165" x="66" y="648.627">accountHolder : std::string</text></a><a href="" target="_top" title="accountNumber" xlink:actuate="onRequest" xlink:href="" xlink:show="new" xlink:title="accountNumber" xlink:type="simple"><rect fill="#F1F1F1" height="10" style="stroke:none;stroke-width:1.0;" width="20" x="52" y="657.0078"/><rect fill="none" height="6" style="stroke:#C82930;stroke-width:1.0;" width="6" x="54" y="659.0078"/></a><a href="" target="_top" title="accountNumber" xlink:actuate="onRequest" xlink:href="" xlink:show="new" xlink:title="accountNumber" xlink:type="simple"><text fill="#000000" font-family="sans-serif" font-size="14" lengthAdjust="spacing" textLength="126" x="66" y="666.2363">accountNumber : int</text></a><a href="" target="_top" title="accountType" xlink:actuate="onRequest" xlink:href="" xlink:show="new" xlink:title="accountType" xlink:type="simple"><rect fill="#F1F1F1" height="10" style="stroke:none;stroke-width:1.0;" width="20" x="52" y="674.6172"/><rect fill="none" height="6" style="stroke:#C82930;stroke-width:1.0;" width="6" x="54" y="676.6172"/></a><a href="" target="_top" title="accountType" xlink:actuate="onRequest" xlink:href="" xlink:show="new" xlink:title="accountType" xlink:type="simple"><text fill="#000000" font-family="sans-serif" font-size="14" lengthAdjust="spacing" textLength="156" x="66" y="683.8457">accountType : std::string</text></a></g></a><!--class C_0013925658533498293399--><a href="classBank.html" target="_top" title="Bank" xlink:actuate="onRequest" xlink:href="classBank.html" xlink:show="new" xlink:title="Bank" xlink:type="simple"><g id="elem_C_0013925658533498293399"><rect codeLine="24" fill="#F1F1F1" height="196.875" id="C_0013925658533498293399" rx="2.5" ry="2.5" style="stroke:#181818;stroke-width:0.5;" width="337" x="304.5" y="124.6094"/><ellipse cx="452.75" cy="140.6094" fill="#ADD1B2" rx="11" ry="11" style="stroke:#181818;stroke-width:1.0;"/><path d="M455.5156,136.4844 Q455.6719,136.2656 455.8594,136.1563 Q456.0469,136.0469 456.2656,136.0469 Q456.6406,136.0469 456.875,136.3125 Q457.1094,136.5625 457.1094,137.1719 L457.1094,138.625 Q457.1094,139.2344 456.875,139.5 Q456.6406,139.7656 456.2656,139.7656 Q455.9219,139.7656 455.7188,139.5625 Q455.5156,139.375 455.4063,138.8594 Q455.3594,138.5 455.1719,138.3125 Q454.8438,137.9375 454.2344,137.7188 Q453.625,137.5 453,137.5 Q452.2344,137.5 451.5938,137.8281 Q450.9688,138.1563 450.4688,138.9063 Q449.9844,139.6563 449.9844,140.6875 L449.9844,141.7813 Q449.9844,143.0156 450.875,143.8438 Q451.7656,144.6563 453.3594,144.6563 Q454.2969,144.6563 454.9531,144.4063 Q455.3438,144.25 455.7656,143.8125 Q456.0313,143.5469 456.1719,143.4688 Q456.3281,143.3906 456.5313,143.3906 Q456.8594,143.3906 457.1094,143.6563 Q457.375,143.9063 457.375,144.25 Q457.375,144.5938 457.0313,145 Q456.5313,145.5781 455.7344,145.9063 Q454.6563,146.3594 453.3594,146.3594 Q451.8438,146.3594 450.6406,145.7344 Q449.6563,145.2344 448.9688,144.1719 Q448.2813,143.0938 448.2813,141.8125 L448.2813,140.6563 Q448.2813,139.3281 448.8906,138.1875 Q449.5156,137.0313 450.6094,136.4219 Q451.7031,135.7969 452.9375,135.7969 Q453.6719,135.7969 454.3125,135.9688 Q454.9688,136.125 455.5156,136.4844 Z " fill="#000000"/><text fill="#000000" font-family="sans-serif" font-size="14" lengthAdjust="spacing" textLength="32" x="473.25" y="146.3379">Bank</text><line style="stroke:#181818;stroke-width:0.5;" x1="305.5" x2="640.5" y1="156.6094" y2="156.6094"/><a href="" target="_top" title="Bank" xlink:actuate="onRequest" xlink:href="" xlink:show="new" xlink:title="Bank" xlink:type="simple"><rect fill="#F1F1F1" height="10" style="stroke:none;stroke-width:1.0;" width="20" x="310.5" y="165.9141"/><ellipse cx="315.5" cy="170.9141" fill="#84BE84" rx="3" ry="3" style="stroke:#038048;stroke-width:1.0;"/></a><a href="" target="_top" title="Bank" xlink:actuate="onRequest" xlink:href="" xlink:show="new" xlink:title="Bank" xlink:type="simple"><text fill="#000000" font-family="sans-serif" font-size="14" lengthAdjust="spacing" textLength="80" x="324.5" y="175.1426">Bank() : void</text></a><a href="" target="_top" title="Bank" xlink:actuate="onRequest" xlink:href="" xlink:show="new" xlink:title="Bank" xlink:type="simple"><rect fill="#F1F1F1" height="10" style="stroke:none;stroke-width:1.0;" width="20" x="310.5" y="183.5234"/><ellipse cx="315.5" cy="188.5234" fill="#84BE84" rx="3" ry="3" style="stroke:#038048;stroke-width:1.0;"/></a><a href="" target="_top" title="Bank" xlink:actuate="onRequest" xlink:href="" xlink:show="new" xlink:title="Bank" xlink:type="simple"><text fill="#000000" font-family="sans-serif" font-size="14" lengthAdjust="spacing" textLength="157" x="324.5" y="192.752">Bank(Bank &amp;&amp; obj) : void</text></a><line style="stroke:#181818;stroke-width:1.0;stroke-dasharray:1.0,2.0;" x1="305.5" x2="640.5" y1="199.8281" y2="199.8281"/><a href="" target="_top" title="SortAccounts" xlink:actuate="onRequest" xlink:href="" xlink:show="new" xlink:title="SortAccounts" xlink:type="simple"><rect fill="#F1F1F1" height="10" style="stroke:none;stroke-width:1.0;" width="20" x="310.5" y="209.1328"/><ellipse cx="315.5" cy="214.1328" fill="#84BE84" rx="3" ry="3" style="stroke:#038048;stroke-width:1.0;"/></a><a href="" target="_top" title="SortAccounts" xlink:actuate="onRequest" xlink:href="" xlink:show="new" xlink:title="SortAccounts" xlink:type="simple"><text fill="#000000" font-family="sans-serif" font-size="14" lengthAdjust="spacing" textLength="132" x="324.5" y="218.3613">SortAccounts() : void</text></a><a href="" target="_top" title="addAccount" xlink:actuate="onRequest" xlink:href="" xlink:show="new" xlink:title="addAccount" xlink:type="simple"><rect fill="#F1F1F1" height="10" style="stroke:none;stroke-width:1.0;" width="20" x="310.5" y="226.7422"/><ellipse cx="315.5" cy="231.7422" fill="#84BE84" rx="3" ry="3" style="stroke:#038048;stroke-width:1.0;"/></a><a href="" target="_top" title="addAccount" xlink:actuate="onRequest" xlink:href="" xlink:show="new" xlink:title="addAccount" xlink:type="simple"><text fill="#000000" font-family="sans-serif" font-size="14" lengthAdjust="spacing" textLength="311" x="324.5" y="235.9707">addAccount(const BankAccount &amp; account) : void</text></a><a href="" target="_top" title="displayAllAccounts" xlink:actuate="onRequest" xlink:href="" xlink:show="new" xlink:title="displayAllAccounts" xlink:type="simple"><rect fill="#F1F1F1" height="10" style="stroke:none;stroke-width:1.0;" width="20" x="310.5" y="244.3516"/><ellipse cx="315.5" cy="249.3516" fill="#84BE84" rx="3" ry="3" style="stroke:#038048;stroke-width:1.0;"/></a><a href="" target="_top" title="displayAllAccounts" xlink:actuate="onRequest" xlink:href="" xlink:show="new" xlink:title="displayAllAccounts" xlink:type="simple"><text fill="#000000" font-family="sans-serif" font-size="14" lengthAdjust="spacing" textLength="203" x="324.5" y="253.5801">displayAllAccounts() const : void</text></a><a href="" target="_top" title="getAccounts" xlink:actuate="onRequest" xlink:href="" xlink:show="new" xlink:title="getAccounts" xlink:type="simple"><rect fill="#F1F1F1" height="10" style="stroke:none;stroke-width:1.0;" width="20" x="310.5" y="261.9609"/><ellipse cx="315.5" cy="266.9609" fill="#84BE84" rx="3" ry="3" style="stroke:#038048;stroke-width:1.0;"/></a><a href="" target="_top" title="getAccounts" xlink:actuate="onRequest" xlink:href="" xlink:show="new" xlink:title="getAccounts" xlink:type="simple"><text fill="#000000" font-family="sans-serif" font-size="14" lengthAdjust="spacing" textLength="303" x="324.5" y="271.1895">getAccounts() const : std::vector&lt;BankAccount&gt;</text></a><a href="" target="_top" title="getTotalBalance" xlink:actuate="onRequest" xlink:href="" xlink:show="new" xlink:title="getTotalBalance" xlink:type="simple"><rect fill="#F1F1F1" height="10" style="stroke:none;stroke-width:1.0;" width="20" x="310.5" y="279.5703"/><ellipse cx="315.5" cy="284.5703" fill="#84BE84" rx="3" ry="3" style="stroke:#038048;stroke-width:1.0;"/></a><a href="" target="_top" title="getTotalBalance" xlink:actuate="onRequest" xlink:href="" xlink:show="new" xlink:title="getTotalBalance" xlink:type="simple"><text fill="#000000" font-family="sans-serif" font-size="14" lengthAdjust="spacing" textLength="206" x="324.5" y="288.7988">getTotalBalance() const : double</text></a><line style="stroke:#181818;stroke-width:0.5;" x1="305.5" x2="640.5" y1="295.875" y2="295.875"/><a href="" target="_top" title="accounts" xlink:actuate="onRequest" xlink:href="" xlink:show="new" xlink:title="accounts" xlink:type="simple"><rect fill="#F1F1F1" height="10" style="stroke:none;stroke-width:1.0;" width="20" x="310.5" y="305.1797"/><rect fill="none" height="6" style="stroke:#C82930;stroke-width:1.0;" width="6" x="312.5" y="307.1797"/></a><a href="" target="_top" title="accounts" xlink:actuate="onRequest" xlink:href="" xlink:show="new" xlink:title="accounts" xlink:type="simple"><text fill="#000000" font-family="sans-serif" font-size="14" lengthAdjust="spacing" textLength="234" x="324.5" y="314.4082">accounts : std::vector&lt;BankAccount&gt;</text></a></g></a><!--reverse link C_0013925658533498293399 to C_0009984192897324832466--><g id="link_C_0013925658533498293399_C_0009984192897324832466"><path codeLine="38" d="M473,333.9294 C473,365.6794 473,389.4594 473,423.3094 " fill="none" id="C_0013925658533498293399-backto-C_0009984192897324832466" style="stroke:#181818;stroke-width:1.0;"/><polygon fill="none" points="473,321.9294,469,327.9294,473,333.9294,477,327.9294,473,321.9294" style="stroke:#181818;stroke-width:1.0;"/><rect fill="none" height="6" style="stroke:#C82930;stroke-width:1.0;" width="6" x="476" y="360.2852"/><text fill="#000000" font-family="sans-serif" font-size="13" lengthAdjust="spacing" textLength="53" x="486" y="368.1045">accounts</text></g></g></svg>